<svg width="40" height="51" viewBox="0 0 40 51" fill="none" xmlns="http://www.w3.org/2000/svg">
<path d="M20.2419 50.571C16.7192 47.5662 13.454 44.2721 10.4803 40.723C6.01789 35.3932 0.718752 27.4556 0.718752 19.8918C0.716817 16.0289 1.86088 12.2523 4.00615 9.03981C6.15142 5.82736 9.20148 3.32353 12.7703 1.84518C16.3391 0.366826 20.2663 -0.019583 24.0548 0.734851C27.8433 1.48929 31.3229 3.35065 34.0531 6.08338C35.8709 7.89306 37.3117 10.0453 38.2921 12.4155C39.2726 14.7857 39.7732 17.3268 39.765 19.8918C39.765 27.4556 34.4659 35.3932 30.0035 40.723C27.0298 44.2721 23.7646 47.5662 20.2419 50.571ZM20.2419 11.5248C18.0228 11.5248 15.8946 12.4063 14.3255 13.9754C12.7564 15.5445 11.8748 17.6727 11.8748 19.8918C11.8748 22.1109 12.7564 24.2391 14.3255 25.8082C15.8946 27.3774 18.0228 28.2589 20.2419 28.2589C22.461 28.2589 24.5892 27.3774 26.1583 25.8082C27.7274 24.2391 28.609 22.1109 28.609 19.8918C28.609 17.6727 27.7274 15.5445 26.1583 13.9754C24.5892 12.4063 22.461 11.5248 20.2419 11.5248Z" fill="white"/>
</svg>
