<svg width="20" height="26" viewBox="0 0 20 26" fill="none" xmlns="http://www.w3.org/2000/svg">
<path d="M9.7261 25.0594C11.436 23.6009 13.021 22.0019 14.4643 20.2792C16.6304 17.6921 19.2026 13.8392 19.2026 10.1678C19.2035 8.29272 18.6482 6.45954 17.6069 4.90022C16.5656 3.34091 15.0851 2.12555 13.3528 1.40797C11.6205 0.690377 9.71426 0.502815 7.87532 0.869016C6.03639 1.23522 4.34742 2.13872 3.02216 3.46518C2.13983 4.34359 1.44047 5.38828 0.964563 6.53877C0.488657 7.68927 0.245651 8.92273 0.249615 10.1678C0.249615 13.8392 2.8218 17.6921 4.98786 20.2792C6.43126 22.0019 8.0162 23.6009 9.7261 25.0594ZM9.7261 6.10641C10.8032 6.10641 11.8363 6.5343 12.5979 7.29595C13.3596 8.0576 13.7875 9.09062 13.7875 10.1678C13.7875 11.2449 13.3596 12.2779 12.5979 13.0396C11.8363 13.8012 10.8032 14.2291 9.7261 14.2291C8.64896 14.2291 7.61594 13.8012 6.85429 13.0396C6.09264 12.2779 5.66475 11.2449 5.66475 10.1678C5.66475 9.09062 6.09264 8.0576 6.85429 7.29595C7.61594 6.5343 8.64896 6.10641 9.7261 6.10641Z" fill="white"/>
</svg>
